<mxfile host="65bd71144e">
    <diagram id="l-JHuJdLGj9KlWCfnx30" name="Page-1">
        <mxGraphModel dx="1931" dy="740" grid="1" gridSize="10" guides="1" tooltips="1" connect="1" arrows="1" fold="1" page="1" pageScale="1" pageWidth="827" pageHeight="1169" math="0" shadow="0">
            <root>
                <mxCell id="0"/>
                <mxCell id="1" parent="0"/>
                <mxCell id="12" value="" style="group;align=center;verticalAlign=middle;" parent="1" vertex="1" connectable="0">
                    <mxGeometry x="520" y="90" width="294" height="100" as="geometry"/>
                </mxCell>
                <mxCell id="11" value="&lt;h1&gt;Repo Dev&lt;/h1&gt;" style="rounded=1;whiteSpace=wrap;html=1;" parent="12" vertex="1">
                    <mxGeometry width="294" height="100" as="geometry"/>
                </mxCell>
                <mxCell id="3" value="" style="dashed=0;outlineConnect=0;html=1;align=center;labelPosition=center;verticalLabelPosition=bottom;verticalAlign=top;shape=mxgraph.weblogos.github" parent="12" vertex="1">
                    <mxGeometry y="12.5" width="75" height="75" as="geometry"/>
                </mxCell>
                <mxCell id="34" style="edgeStyle=none;html=1;fillColor=#6a00ff;strokeColor=#3700CC;jumpSize=3;strokeWidth=3;startArrow=none;" parent="1" source="28" target="11" edge="1">
                    <mxGeometry relative="1" as="geometry"/>
                </mxCell>
                <mxCell id="95" value="git push" style="edgeLabel;html=1;align=center;verticalAlign=middle;resizable=0;points=[];fontSize=12;fontColor=#FFFFFF;" parent="34" vertex="1" connectable="0">
                    <mxGeometry x="-0.2847" y="-2" relative="1" as="geometry">
                        <mxPoint as="offset"/>
                    </mxGeometry>
                </mxCell>
                <mxCell id="86" style="edgeStyle=none;html=1;fontSize=12;strokeWidth=3;fillColor=#f0a30a;strokeColor=#BD7000;" parent="1" source="29" target="17" edge="1">
                    <mxGeometry relative="1" as="geometry">
                        <mxPoint x="401.78723404255334" y="560" as="sourcePoint"/>
                        <mxPoint x="277" y="140" as="targetPoint"/>
                        <Array as="points">
                            <mxPoint x="400" y="140"/>
                        </Array>
                    </mxGeometry>
                </mxCell>
                <mxCell id="93" value="Commit all files with last message" style="edgeLabel;html=1;align=center;verticalAlign=middle;resizable=0;points=[];fontSize=12;fontColor=#FFFFFF;" parent="86" vertex="1" connectable="0">
                    <mxGeometry x="-0.7193" y="-2" relative="1" as="geometry">
                        <mxPoint as="offset"/>
                    </mxGeometry>
                </mxCell>
                <mxCell id="94" value="Push" style="edgeLabel;html=1;align=center;verticalAlign=middle;resizable=0;points=[];fontSize=12;fontColor=#FFFFFF;" parent="86" vertex="1" connectable="0">
                    <mxGeometry x="-0.1687" relative="1" as="geometry">
                        <mxPoint y="34" as="offset"/>
                    </mxGeometry>
                </mxCell>
                <mxCell id="29" value="&lt;span style=&quot;font-weight: 700&quot;&gt;Repo Prod local&lt;br&gt;&lt;br&gt;&lt;/span&gt;" style="rounded=1;whiteSpace=wrap;html=1;shadow=0;labelBackgroundColor=none;fillColor=default;verticalAlign=middle;" parent="1" vertex="1">
                    <mxGeometry x="340" y="320" width="120" height="100" as="geometry"/>
                </mxCell>
                <mxCell id="28" value="&lt;span style=&quot;font-weight: 700&quot;&gt;&lt;font style=&quot;font-size: 12px ; line-height: 0.5&quot;&gt;Repo Dev local&lt;/font&gt;&lt;/span&gt;" style="rounded=1;whiteSpace=wrap;html=1;shadow=0;labelBackgroundColor=none;fillColor=default;arcSize=3;labelPosition=center;verticalLabelPosition=top;align=center;verticalAlign=bottom;labelBorderColor=none;spacing=-33;" parent="1" vertex="1">
                    <mxGeometry x="516.75" y="280" width="300.5" height="210" as="geometry"/>
                </mxCell>
                <mxCell id="62" value="" style="group" parent="1" vertex="1" connectable="0">
                    <mxGeometry x="627" y="710" width="80" height="65" as="geometry"/>
                </mxCell>
                <mxCell id="8" value="" style="fontColor=#0066CC;verticalAlign=top;verticalLabelPosition=bottom;labelPosition=center;align=center;html=1;outlineConnect=0;fillColor=#CCCCCC;strokeColor=#6881B3;gradientColor=none;gradientDirection=north;strokeWidth=2;shape=mxgraph.networks.terminal;" parent="62" vertex="1">
                    <mxGeometry width="80" height="65" as="geometry"/>
                </mxCell>
                <mxCell id="21" value="&lt;h1&gt;Script&lt;/h1&gt;" style="rounded=0;whiteSpace=wrap;html=1;shadow=0;labelBackgroundColor=none;fillColor=default;" parent="62" vertex="1">
                    <mxGeometry x="5" y="2" width="70" height="40" as="geometry"/>
                </mxCell>
                <mxCell id="32" value="" style="edgeStyle=none;html=1;" parent="62" source="8" target="21" edge="1">
                    <mxGeometry relative="1" as="geometry"/>
                </mxCell>
                <mxCell id="64" value="" style="group" parent="1" vertex="1" connectable="0">
                    <mxGeometry x="-110" y="90" width="294" height="685" as="geometry"/>
                </mxCell>
                <mxCell id="6" value="" style="fontColor=#0066CC;verticalAlign=top;verticalLabelPosition=bottom;labelPosition=center;align=center;html=1;outlineConnect=0;fillColor=#CCCCCC;strokeColor=#6881B3;gradientColor=none;gradientDirection=north;strokeWidth=2;shape=mxgraph.networks.web_server;" parent="64" vertex="1">
                    <mxGeometry x="104" y="400" width="105" height="105" as="geometry"/>
                </mxCell>
                <mxCell id="16" value="" style="group;align=center;verticalAlign=middle;" parent="64" vertex="1" connectable="0">
                    <mxGeometry x="3" width="294" height="100" as="geometry"/>
                </mxCell>
                <mxCell id="17" value="&lt;h1&gt;Repo Prod&lt;/h1&gt;" style="rounded=1;whiteSpace=wrap;html=1;" parent="16" vertex="1">
                    <mxGeometry width="294" height="100" as="geometry"/>
                </mxCell>
                <mxCell id="18" value="" style="dashed=0;outlineConnect=0;html=1;align=center;labelPosition=center;verticalLabelPosition=bottom;verticalAlign=top;shape=mxgraph.weblogos.github" parent="16" vertex="1">
                    <mxGeometry y="12.5" width="75" height="75" as="geometry"/>
                </mxCell>
                <mxCell id="61" value="SSH" style="edgeStyle=none;jumpSize=3;html=1;fontColor=#FF6666;strokeWidth=3;" parent="64" source="60" edge="1">
                    <mxGeometry relative="1" as="geometry">
                        <mxPoint x="148.85060975609758" y="629" as="sourcePoint"/>
                        <mxPoint x="147" y="510" as="targetPoint"/>
                    </mxGeometry>
                </mxCell>
                <mxCell id="60" value="" style="fontColor=#0066CC;verticalAlign=top;verticalLabelPosition=bottom;labelPosition=center;align=center;html=1;outlineConnect=0;fillColor=#CCCCCC;strokeColor=#6881B3;gradientColor=none;gradientDirection=north;strokeWidth=2;shape=mxgraph.networks.user_male;rounded=0;shadow=0;labelBackgroundColor=none;" parent="64" vertex="1">
                    <mxGeometry x="133.25" y="630" width="27.5" height="55" as="geometry"/>
                </mxCell>
                <mxCell id="63" style="edgeStyle=none;jumpSize=3;html=1;labelBackgroundColor=none;fontColor=#FF6666;strokeWidth=3;fillColor=#60a917;strokeColor=#2D7600;" parent="64" source="17" edge="1">
                    <mxGeometry relative="1" as="geometry">
                        <mxPoint x="150" y="390" as="targetPoint"/>
                        <mxPoint x="150" y="100" as="sourcePoint"/>
                    </mxGeometry>
                </mxCell>
                <mxCell id="92" value="&lt;span style=&quot;font-size: 11px&quot;&gt;&lt;font color=&quot;#ffffff&quot;&gt;git pull&lt;/font&gt;&lt;/span&gt;" style="edgeLabel;html=1;align=center;verticalAlign=middle;resizable=0;points=[];fontSize=12;" parent="63" vertex="1" connectable="0">
                    <mxGeometry x="-0.3255" y="3" relative="1" as="geometry">
                        <mxPoint as="offset"/>
                    </mxGeometry>
                </mxCell>
                <mxCell id="69" value="prod.ini&lt;br&gt;- contain all files must be ignored for prod&lt;br&gt;like &quot;docs&quot;,&quot;frontend&quot; ect" style="rounded=1;whiteSpace=wrap;html=1;" parent="1" vertex="1">
                    <mxGeometry x="523" y="390" width="120" height="90" as="geometry"/>
                </mxCell>
                <mxCell id="72" value=".gitignore&lt;br&gt;- basic git ignored file like npm,.cache ect" style="rounded=1;whiteSpace=wrap;html=1;" parent="1" vertex="1">
                    <mxGeometry x="690" y="390" width="120" height="90" as="geometry"/>
                </mxCell>
                <mxCell id="84" style="edgeStyle=none;html=1;fontSize=12;strokeWidth=3;fillColor=#f0a30a;strokeColor=#BD7000;" parent="1" source="77" target="29" edge="1">
                    <mxGeometry relative="1" as="geometry">
                        <Array as="points">
                            <mxPoint x="400" y="610"/>
                        </Array>
                    </mxGeometry>
                </mxCell>
                <mxCell id="85" value="Copy file&amp;nbsp; &lt;br&gt;not ignored to&lt;br&gt;(don't copy .gitignore too)" style="edgeLabel;html=1;align=center;verticalAlign=middle;resizable=0;points=[];fontSize=12;" parent="84" vertex="1" connectable="0">
                    <mxGeometry x="0.214" y="-1" relative="1" as="geometry">
                        <mxPoint x="99" y="34" as="offset"/>
                    </mxGeometry>
                </mxCell>
                <mxCell id="77" value="- Get the content of prod.ini &amp;amp; .gitgnore&lt;br&gt;&lt;br&gt;- Get last commit message" style="rounded=1;whiteSpace=wrap;html=1;labelBorderColor=none;fontSize=12;labelBackgroundColor=none;fillColor=none;" parent="1" vertex="1">
                    <mxGeometry x="608" y="560" width="120" height="100" as="geometry"/>
                </mxCell>
                <mxCell id="78" value="" style="endArrow=none;html=1;fontSize=12;entryX=0.5;entryY=1;entryDx=0;entryDy=0;fillColor=#0050ef;strokeColor=#001DBC;strokeWidth=3;" parent="1" source="77" target="28" edge="1">
                    <mxGeometry width="50" height="50" relative="1" as="geometry">
                        <mxPoint x="680" y="550" as="sourcePoint"/>
                        <mxPoint x="450" y="430" as="targetPoint"/>
                    </mxGeometry>
                </mxCell>
                <mxCell id="80" value="" style="endArrow=none;html=1;fontSize=12;fillColor=#0050ef;strokeColor=#001DBC;strokeWidth=3;" parent="1" source="21" target="77" edge="1">
                    <mxGeometry width="50" height="50" relative="1" as="geometry">
                        <mxPoint x="668.35" y="699.9999999999999" as="sourcePoint"/>
                        <mxPoint x="667.65" y="630.0000000000001" as="targetPoint"/>
                    </mxGeometry>
                </mxCell>
                <mxCell id="75" style="edgeStyle=none;html=1;fontSize=12;fillColor=#f0a30a;strokeColor=#BD7000;" parent="1" edge="1">
                    <mxGeometry relative="1" as="geometry">
                        <mxPoint x="649.741935483871" y="559.9999999999999" as="targetPoint"/>
                        <mxPoint x="606.3870967741937" y="479.9999999999999" as="sourcePoint"/>
                    </mxGeometry>
                </mxCell>
                <mxCell id="76" style="edgeStyle=none;html=1;fontSize=12;fillColor=#f0a30a;strokeColor=#BD7000;" parent="1" edge="1">
                    <mxGeometry relative="1" as="geometry">
                        <mxPoint x="688.0645161290324" y="559.9999999999999" as="targetPoint"/>
                        <mxPoint x="730.9032258064517" y="479.9999999999999" as="sourcePoint"/>
                    </mxGeometry>
                </mxCell>
                <mxCell id="97" value="&lt;p style=&quot;line-height: 1.7&quot;&gt;&lt;/p&gt;&lt;h1 style=&quot;line-height: 0;&quot;&gt;Script steps&lt;/h1&gt;&lt;div style=&quot;&quot;&gt;( I use variables for description but useless in script )&lt;/div&gt;&lt;div style=&quot;line-height: 1&quot;&gt;&lt;br&gt;&lt;/div&gt;&lt;div&gt;1&amp;nbsp;&lt;/div&gt;&lt;div&gt;&lt;span&gt;&#9;&lt;/span&gt;&lt;span style=&quot;white-space: pre&quot;&gt;&#9;&lt;/span&gt;- Get the content of prod.ini and .gitignore as $ignored&lt;/div&gt;&lt;div&gt;&lt;br&gt;&lt;/div&gt;&lt;div&gt;&lt;span&gt;&#9;&lt;/span&gt;&lt;span style=&quot;white-space: pre&quot;&gt;&#9;&lt;/span&gt;- Copy the content of &quot;Repo Dev local &quot; less&amp;nbsp; $ignored into &quot;Repo Prod local&quot;&lt;/div&gt;&lt;div&gt;&lt;br&gt;&lt;/div&gt;&lt;div&gt;2&lt;/div&gt;&lt;div&gt;&lt;span&gt;&#9;&lt;/span&gt;&lt;span style=&quot;white-space: pre&quot;&gt;&#9;&lt;/span&gt;- Get the last commit message of &quot;Repo Dev local&quot; as $lastCommit&lt;br&gt;&lt;/div&gt;&lt;div&gt;&lt;br&gt;&lt;/div&gt;&lt;div&gt;&lt;span&gt;&#9;&lt;/span&gt;&lt;span style=&quot;white-space: pre&quot;&gt;&#9;&lt;/span&gt;- Commit all the flies in &quot;Repo Prod local&quot; with $lastCommit&lt;span&gt;&amp;nbsp;as message&lt;/span&gt;&lt;/div&gt;&lt;div&gt;&lt;br&gt;&lt;/div&gt;&lt;div&gt;&lt;span style=&quot;white-space: pre&quot;&gt;&#9;&lt;/span&gt;- Push &quot;Repo Prod local&quot;&lt;/div&gt;&lt;div&gt;&lt;br&gt;&lt;/div&gt;&lt;div&gt;&lt;br&gt;&lt;/div&gt;&lt;div&gt;You can now connect to your server throught SSH and pull the Repo Prod&lt;/div&gt;&lt;p&gt;&lt;/p&gt;" style="text;html=1;strokeColor=#432D57;fillColor=#76608a;spacing=5;spacingTop=-6;whiteSpace=wrap;overflow=hidden;rounded=0;labelBackgroundColor=none;labelBorderColor=none;fontSize=12;fontColor=#ffffff;verticalAlign=middle;align=center;" parent="1" vertex="1">
                    <mxGeometry x="130" y="650" width="450" height="290" as="geometry"/>
                </mxCell>
            </root>
        </mxGraphModel>
    </diagram>
</mxfile>